<?xml version="1.0" encoding="utf-8"?>
<svg version="1.1" xmlns:xlink="http://www.w3.org/1999/xlink" width="61px" height="24px" xmlns="http://www.w3.org/2000/svg">
  <defs>
    <mask fill="white" id="clip46">
      <path d="M 0 20  L 0 4  C 0 1.75999999999999  1.26305882352941 0  2.87058823529412 0  L 37.5302832244009 0  L 58.1294117647059 0  C 59.7369411764706 0  61 1.75999999999999  61 4  L 61 20  C 61 22.24  59.7369411764706 24  58.1294117647059 24  L 2.87058823529412 24  C 1.26305882352941 24  0 22.24  0 20  Z " fill-rule="evenodd" />
    </mask>
  </defs>
  <g transform="matrix(1 0 0 1 -201 -362 )">
    <path d="M 0 20  L 0 4  C 0 1.75999999999999  1.26305882352941 0  2.87058823529412 0  L 37.5302832244009 0  L 58.1294117647059 0  C 59.7369411764706 0  61 1.75999999999999  61 4  L 61 20  C 61 22.24  59.7369411764706 24  58.1294117647059 24  L 2.87058823529412 24  C 1.26305882352941 24  0 22.24  0 20  Z " fill-rule="nonzero" fill="#f7f7f7" stroke="none" transform="matrix(1 0 0 1 201 362 )" />
    <path d="M 0 20  L 0 4  C 0 1.75999999999999  1.26305882352941 0  2.87058823529412 0  L 37.5302832244009 0  L 58.1294117647059 0  C 59.7369411764706 0  61 1.75999999999999  61 4  L 61 20  C 61 22.24  59.7369411764706 24  58.1294117647059 24  L 2.87058823529412 24  C 1.26305882352941 24  0 22.24  0 20  Z " stroke-width="2" stroke="#ebebeb" fill="none" transform="matrix(1 0 0 1 201 362 )" mask="url(#clip46)" />
  </g>
</svg>