<?xml version="1.0" encoding="utf-8"?>
<svg version="1.1" xmlns:xlink="http://www.w3.org/1999/xlink" width="10px" height="42px" preserveAspectRatio="xMidYMin meet" viewBox="1228 454  8 42" xmlns="http://www.w3.org/2000/svg">
  <path d="M 1229.48961583702 459.624350313157  A 4 4 0 0 1 1232.5 463.5 L 1232.5 486  A 5 5 0 0 0 1237.5 491.5 L 1493 491.5  A 5 5 0 0 1 1498.5 496.5 L 1498.5 516  " stroke-width="1" stroke="#ff3399" fill="none" />
  <path d="M 1231.22655504009 457.573244524505  A 3 3 0 0 0 1228.22655504009 460.573244524505 A 3 3 0 0 0 1231.22655504009 463.573244524505 A 3 3 0 0 0 1234.22655504009 460.573244524505 A 3 3 0 0 0 1231.22655504009 457.573244524505 Z " fill-rule="nonzero" fill="#ff3399" stroke="none" />
</svg>