<?xml version="1.0" encoding="utf-8"?>
<svg version="1.1" xmlns:xlink="http://www.w3.org/1999/xlink" width="73px" height="10px" preserveAspectRatio="xMinYMid meet" viewBox="404 311  73 8" xmlns="http://www.w3.org/2000/svg">
  <path d="M 400 370.5  L 404 370.5  A 5 5 0 0 0 409.5 365.5 L 409.5 320  A 5 5 0 0 1 414.5 315.5 L 467 315.5  A 5 5 0 0 1 472.5 320.5 L 472.5 338  " stroke-width="1" stroke="#ff3399" fill="none" />
  <path d="M 402 367.5  A 3 3 0 0 0 399 370.5 A 3 3 0 0 0 402 373.5 A 3 3 0 0 0 405 370.5 A 3 3 0 0 0 402 367.5 Z " fill-rule="nonzero" fill="#ff3399" stroke="none" />
</svg>