<?xml version="1.0" encoding="utf-8"?>
<svg version="1.1" xmlns:xlink="http://www.w3.org/1999/xlink" width="10px" height="15px" preserveAspectRatio="xMidYMin meet" viewBox="526 96  8 15" xmlns="http://www.w3.org/2000/svg">
  <path d="M 348 147.5  L 352 147.5  A 5 5 0 0 0 357.5 142.5 L 357.5 106  A 5 5 0 0 1 362.5 101.5 L 525 101.5  A 5 5 0 0 1 530.5 106.5 L 530.5 111  " stroke-width="1" stroke="#ff3399" fill="none" />
  <path d="M 350 144.5  A 3 3 0 0 0 347 147.5 A 3 3 0 0 0 350 150.5 A 3 3 0 0 0 353 147.5 A 3 3 0 0 0 350 144.5 Z " fill-rule="nonzero" fill="#ff3399" stroke="none" />
</svg>