<?xml version="1.0" encoding="utf-8"?>
<svg version="1.1" xmlns:xlink="http://www.w3.org/1999/xlink" width="139px" height="10px" preserveAspectRatio="xMinYMid meet" viewBox="486 33  139 8" xmlns="http://www.w3.org/2000/svg">
  <path d="M 487 37.5  L 615 37.5  A 5 5 0 0 0 620.5 32.5 L 620.5 25  A 5 5 0 0 1 625.5 20.5 L 652 20.5  A 5 5 0 0 1 657.5 25.5 L 657.5 39  " stroke-width="1" stroke="#ff3399" fill="none" />
  <path d="M 489 34.5  A 3 3 0 0 0 486 37.5 A 3 3 0 0 0 489 40.5 A 3 3 0 0 0 492 37.5 A 3 3 0 0 0 489 34.5 Z " fill-rule="nonzero" fill="#ff3399" stroke="none" />
</svg>