<?xml version="1.0" encoding="utf-8"?>
<svg version="1.1" xmlns:xlink="http://www.w3.org/1999/xlink" width="18px" height="18px" preserveAspectRatio="xMinYMid meet" viewBox="1268 20  18 16" xmlns="http://www.w3.org/2000/svg">
  <path d="M 1275.48158409039 28.3348708389442  A 3 3 0 0 0 1277.5 25.5 L 1277.5 19  A 5 5 0 0 1 1282.5 14.5 L 1555 14.5  A 5 5 0 0 1 1560.5 19.5 L 1560.5 39  " stroke-width="1" stroke="#ff3399" fill="none" />
  <path d="M 1277.02441295442 24.1209069176044  A 3 3 0 0 0 1274.02441295442 27.1209069176044 A 3 3 0 0 0 1277.02441295442 30.1209069176044 A 3 3 0 0 0 1280.02441295442 27.1209069176044 A 3 3 0 0 0 1277.02441295442 24.1209069176044 Z " fill-rule="nonzero" fill="#ff3399" stroke="none" />
</svg>