<?xml version="1.0" encoding="utf-8"?>
<svg version="1.1" xmlns:xlink="http://www.w3.org/1999/xlink" width="54px" height="10px" preserveAspectRatio="xMinYMid meet" viewBox="1025 876  54 8" xmlns="http://www.w3.org/2000/svg">
  <path d="M 908 894.5  L 1025 894.5  A 5 5 0 0 0 1030.5 889.5 L 1030.5 885  A 5 5 0 0 1 1035.5 880.5 L 1069 880.5  A 5 5 0 0 1 1074.5 885.5 L 1074.5 894  " stroke-width="1" stroke="#ff3399" fill="none" />
  <path d="M 910 891.5  A 3 3 0 0 0 907 894.5 A 3 3 0 0 0 910 897.5 A 3 3 0 0 0 913 894.5 A 3 3 0 0 0 910 891.5 Z " fill-rule="nonzero" fill="#ff3399" stroke="none" />
</svg>