<?xml version="1.0" encoding="utf-8"?>
<svg version="1.1" xmlns:xlink="http://www.w3.org/1999/xlink" width="10px" height="92px" preserveAspectRatio="xMidYMin meet" viewBox="1018 1806  8 92" xmlns="http://www.w3.org/2000/svg">
  <path d="M 1021.45885107721 1893.25516512378  A 2 2 0 0 0 1022.5 1891.5 L 1022.5 1816  A 5 5 0 0 1 1027.5 1811.5 L 1507 1811.5  A 5 5 0 0 1 1512.5 1816.5 L 1512.5 1826  " stroke-width="1" stroke="#ff3399" fill="none" />
  <path d="M 1022.49498997321 1888.64147440334  A 3 3 0 0 0 1019.49498997321 1891.64147440334 A 3 3 0 0 0 1022.49498997321 1894.64147440334 A 3 3 0 0 0 1025.49498997321 1891.64147440334 A 3 3 0 0 0 1022.49498997321 1888.64147440334 Z " fill-rule="nonzero" fill="#ff3399" stroke="none" />
</svg>