<?xml version="1.0" encoding="utf-8"?>
<svg version="1.1" xmlns:xlink="http://www.w3.org/1999/xlink" width="83px" height="10px" preserveAspectRatio="xMinYMid meet" viewBox="219 1171  83 8" xmlns="http://www.w3.org/2000/svg">
  <path d="M 220 1175.5  L 292 1175.5  A 5 5 0 0 0 297.5 1170.5 L 297.5 1135  A 5 5 0 0 1 302.5 1130.5 L 385 1130.5  A 5 5 0 0 1 390.5 1135.5 L 390.5 1141  " stroke-width="1" stroke="#ff3399" fill="none" />
  <path d="M 222 1172.5  A 3 3 0 0 0 219 1175.5 A 3 3 0 0 0 222 1178.5 A 3 3 0 0 0 225 1175.5 A 3 3 0 0 0 222 1172.5 Z " fill-rule="nonzero" fill="#ff3399" stroke="none" />
</svg>