<?xml version="1.0" encoding="utf-8"?>
<svg version="1.1" xmlns:xlink="http://www.w3.org/1999/xlink" width="20px" height="20px" xmlns="http://www.w3.org/2000/svg">
  <g transform="matrix(1 0 0 1 -540 -1018 )">
    <path d="M 19.7526041666667 0.247395833333333  C 19.9175347222222 0.412326388888886  20 0.607638888888886  20 0.833333333333333  L 20 19.1666666666667  C 20 19.3923611111111  19.9175347222222 19.5876736111111  19.7526041666667 19.7526041666667  C 19.5876736111111 19.9175347222222  19.3923611111111 20  19.1666666666667 20  L 12.5 20  C 12.2743055555556 20  12.0789930555556 19.9175347222222  11.9140625 19.7526041666667  C 11.7491319444444 19.5876736111111  11.6666666666667 19.3923611111111  11.6666666666667 19.1666666666667  L 11.6666666666667 0.833333333333333  C 11.6666666666667 0.607638888888886  11.7491319444444 0.412326388888886  11.9140625 0.247395833333333  C 12.0789930555556 0.0824652777777768  12.2743055555556 0  12.5 0  L 19.1666666666667 0  C 19.3923611111111 0  19.5876736111111 0.0824652777777768  19.7526041666667 0.247395833333333  Z M 8.0859375 0.247395833333333  C 8.25086805555556 0.412326388888886  8.33333333333333 0.607638888888886  8.33333333333333 0.833333333333333  L 8.33333333333333 19.1666666666667  C 8.33333333333333 19.3923611111111  8.25086805555556 19.5876736111111  8.0859375 19.7526041666667  C 7.92100694444445 19.9175347222222  7.72569444444445 20  7.5 20  L 0.833333333333333 20  C 0.607638888888889 20  0.412326388888889 19.9175347222222  0.247395833333333 19.7526041666667  C 0.0824652777777778 19.5876736111111  0 19.3923611111111  0 19.1666666666667  L 0 0.833333333333333  C 0 0.607638888888886  0.0824652777777778 0.412326388888886  0.247395833333333 0.247395833333333  C 0.412326388888889 0.0824652777777768  0.607638888888889 0  0.833333333333333 0  L 7.5 0  C 7.72569444444445 0  7.92100694444445 0.0824652777777768  8.0859375 0.247395833333333  Z " fill-rule="nonzero" fill="#000000" stroke="none" transform="matrix(1 0 0 1 540 1018 )" />
  </g>
</svg>