<?xml version="1.0" encoding="utf-8"?>
<svg version="1.1" xmlns:xlink="http://www.w3.org/1999/xlink" width="14px" height="14px" xmlns="http://www.w3.org/2000/svg">
  <g transform="matrix(1 0 0 1 -315 -971 )">
    <path d="M 322 971  C 325.92 971  329 974.08  329 978  C 329 981.92  325.92 985  322 985  C 318.08 985  315 981.92  315 978  C 315 974.08  318.08 971  322 971  Z " fill-rule="nonzero" fill="#ffffff" stroke="none" fill-opacity="0" />
    <path d="M 322 971.5  C 325.64 971.5  328.5 974.36  328.5 978  C 328.5 981.64  325.64 984.5  322 984.5  C 318.36 984.5  315.5 981.64  315.5 978  C 315.5 974.36  318.36 971.5  322 971.5  Z " stroke-width="1" stroke="#1890ff" fill="none" />
  </g>
</svg>