<?xml version="1.0" encoding="utf-8"?>
<svg version="1.1" xmlns:xlink="http://www.w3.org/1999/xlink" width="10px" height="17px" preserveAspectRatio="xMidYMin meet" viewBox="1454 1035  8 17" xmlns="http://www.w3.org/2000/svg">
  <path d="M 720.5 1041.5  A 5 5 0 0 0 725.5 1046.5 L 1417 1046.5  A 3 3 0 0 0 1420.5 1043.5 A 3 3 0 0 1 1423.5 1040.5 L 1453 1040.5  A 5 5 0 0 1 1458.5 1045.5 L 1458.5 1052  " stroke-width="1" stroke="#ff3399" fill="none" />
  <path d="M 720.894695029986 1040.44709171154  A 3 3 0 0 0 717.894695029986 1043.44709171154 A 3 3 0 0 0 720.894695029986 1046.44709171154 A 3 3 0 0 0 723.894695029986 1043.44709171154 A 3 3 0 0 0 720.894695029986 1040.44709171154 Z " fill-rule="nonzero" fill="#ff3399" stroke="none" />
</svg>