<?xml version="1.0" encoding="utf-8"?>
<svg version="1.1" xmlns:xlink="http://www.w3.org/1999/xlink" width="108px" height="10px" preserveAspectRatio="xMinYMid meet" viewBox="1415 946  108 8" xmlns="http://www.w3.org/2000/svg">
  <path d="M 1042.5 1017  L 1042.5 985  A 5 5 0 0 1 1047.5 980.5 L 1415 980.5  A 5 5 0 0 0 1420.5 975.5 L 1420.5 955  A 5 5 0 0 1 1425.5 950.5 L 1513 950.5  A 5 5 0 0 1 1518.5 955.5 L 1518.5 964  " stroke-width="1" stroke="#ff3399" fill="none" />
  <path d="M 1042.5 1012  A 3 3 0 0 0 1039.5 1015 A 3 3 0 0 0 1042.5 1018 A 3 3 0 0 0 1045.5 1015 A 3 3 0 0 0 1042.5 1012 Z " fill-rule="nonzero" fill="#ff3399" stroke="none" />
</svg>